<svg width="24" height="24" viewBox="0 0 24 24" fill="none" xmlns="http://www.w3.org/2000/svg">
<path d="M3.868 20.84C2.25977 19.2317 1.16458 17.1826 0.720911 14.9518C0.277243 12.7211 0.505026 10.4088 1.37546 8.30752C2.24589 6.20621 3.71987 4.41021 5.61102 3.1466C7.50217 1.883 9.72554 1.20856 12 1.20856C14.2744 1.20856 16.4978 1.883 18.389 3.1466C20.2801 4.41021 21.7541 6.20621 22.6245 8.30752C23.495 10.4088 23.7228 12.7211 23.2791 14.9518C22.8354 17.1826 21.7402 19.2317 20.132 20.84C19.6213 21.3509 19.0149 21.7561 18.3475 22.0326C17.6802 22.309 16.9649 22.4513 16.2425 22.4513C15.5201 22.4513 14.8048 22.309 14.1375 22.0326C13.4701 21.7561 12.8637 21.3509 12.353 20.84L8.111 16.6C7.92004 16.4332 7.67284 16.3452 7.41943 16.3537C7.16602 16.3623 6.92532 16.4668 6.74603 16.646C6.56674 16.8253 6.46225 17.066 6.45371 17.3194C6.44516 17.5729 6.5332 17.8201 6.7 18.011C7.07515 18.3866 7.28574 18.8958 7.28546 19.4266C7.28518 19.9574 7.07404 20.4664 6.6985 20.8415C6.32295 21.2167 5.81376 21.4273 5.28294 21.427C4.75212 21.4267 4.24315 21.2156 3.868 20.84Z" fill="#DFF9FF"/>
<path d="M10.232 17.277C9.72432 17.2765 9.217 17.2501 8.712 17.198L12.353 20.84C12.8637 21.3509 13.4701 21.7561 14.1375 22.0326C14.8048 22.309 15.5201 22.4513 16.2425 22.4513C16.9649 22.4513 17.6802 22.309 18.3475 22.0326C19.0149 21.7561 19.6213 21.3509 20.132 20.84C21.5742 19.3975 22.6064 17.5971 23.1226 15.6236C23.6388 13.6502 23.6203 11.5749 23.069 9.61102C21.8211 11.929 19.9686 13.8658 17.7084 15.2155C15.4482 16.5653 12.8646 17.2777 10.232 17.277Z" fill="#9FEAFF"/>
<path d="M6.615 16.807C4.36009 16.23 2.2769 15.1195 0.541 13.569C0.740016 16.3137 1.92111 18.895 3.868 20.84C4.24315 21.2155 4.75212 21.4267 5.28294 21.4269C5.81376 21.4272 6.32295 21.2166 6.6985 20.8415C7.07405 20.4663 7.28518 19.9574 7.28547 19.4265C7.28575 18.8957 7.07515 18.3865 6.7 18.011C6.55477 17.8479 6.46765 17.6413 6.45227 17.4235C6.43689 17.2056 6.49412 16.9888 6.615 16.807Z" fill="#9FEAFF"/>
<path d="M3.868 20.889C2.25977 19.2807 1.16458 17.2316 0.720911 15.0008C0.277243 12.7701 0.505026 10.4578 1.37546 8.35653C2.24589 6.25523 3.71987 4.45922 5.61102 3.19561C7.50217 1.93201 9.72554 1.25757 12 1.25757C14.2744 1.25757 16.4978 1.93201 18.389 3.19561C20.2801 4.45922 21.7541 6.25523 22.6245 8.35653C23.495 10.4578 23.7228 12.7701 23.2791 15.0008C22.8354 17.2316 21.7402 19.2807 20.132 20.889C19.6213 21.3999 19.0149 21.8051 18.3475 22.0816C17.6802 22.358 16.9649 22.5004 16.2425 22.5004C15.5201 22.5004 14.8048 22.358 14.1375 22.0816C13.4701 21.8051 12.8637 21.3999 12.353 20.889L8.111 16.646C7.92059 16.4739 7.67127 16.3815 7.41466 16.3881C7.15804 16.3947 6.91379 16.4997 6.73247 16.6814C6.55115 16.8631 6.44665 17.1076 6.4406 17.3642C6.43456 17.6209 6.52743 17.87 6.7 18.06C7.07515 18.4356 7.28574 18.9448 7.28546 19.4756C7.28518 20.0064 7.07404 20.5154 6.6985 20.8905C6.32295 21.2657 5.81376 21.4763 5.28294 21.476C4.75212 21.4757 4.24315 21.2646 3.868 20.889Z" stroke="#1868DB" stroke-linecap="round" stroke-linejoin="round"/>
<path d="M17.3 8.86701C17.0903 9.07697 16.823 9.22002 16.532 9.27805C16.241 9.33608 15.9393 9.30648 15.6651 9.19301C15.3909 9.07953 15.1565 8.88727 14.9916 8.64056C14.8267 8.39384 14.7387 8.10376 14.7387 7.80701C14.7387 7.51026 14.8267 7.22017 14.9916 6.97346C15.1565 6.72674 15.3909 6.53449 15.6651 6.42101C15.9393 6.30753 16.241 6.27794 16.532 6.33597C16.823 6.394 17.0903 6.53704 17.3 6.74701C17.5809 7.02826 17.7387 7.40951 17.7387 7.80701C17.7387 8.20451 17.5809 8.58576 17.3 8.86701Z" fill="#9FEAFF"/>
<path d="M19 13.755C19.1978 13.755 19.3911 13.6964 19.5556 13.5865C19.72 13.4766 19.8482 13.3204 19.9239 13.1377C19.9996 12.955 20.0194 12.7539 19.9808 12.5599C19.9422 12.3659 19.847 12.1878 19.7071 12.0479C19.5673 11.908 19.3891 11.8128 19.1951 11.7742C19.0011 11.7356 18.8 11.7554 18.6173 11.8311C18.4346 11.9068 18.2784 12.035 18.1685 12.1994C18.0586 12.3639 18 12.5572 18 12.755C18 13.0202 18.1054 13.2746 18.2929 13.4621C18.4804 13.6496 18.7348 13.755 19 13.755Z" fill="white"/>
<path d="M14.828 19.122C14.5482 18.8423 14.3577 18.486 14.2805 18.098C14.2033 17.71 14.2428 17.3078 14.3942 16.9424C14.5455 16.5769 14.8019 16.2645 15.1308 16.0447C15.4597 15.8249 15.8464 15.7076 16.242 15.7076C16.6376 15.7076 17.0243 15.8249 17.3532 16.0447C17.6821 16.2645 17.9385 16.5769 18.0898 16.9424C18.2412 17.3078 18.2807 17.71 18.2035 18.098C18.1263 18.486 17.9358 18.8423 17.656 19.122C17.2809 19.4969 16.7723 19.7076 16.242 19.7076C15.7117 19.7076 15.2031 19.4969 14.828 19.122Z" fill="#9FEAFF"/>
<path d="M11.292 5.68502C11.502 5.89472 11.645 6.16199 11.703 6.45302C11.7611 6.74404 11.7315 7.04573 11.618 7.31993C11.5045 7.59413 11.3123 7.82851 11.0656 7.99341C10.8188 8.15832 10.5288 8.24634 10.232 8.24634C9.93525 8.24634 9.64517 8.15832 9.39845 7.99341C9.15174 7.82851 8.95948 7.59413 8.84601 7.31993C8.73253 7.04573 8.70293 6.74404 8.76096 6.45302C8.81899 6.16199 8.96204 5.89472 9.172 5.68502C9.45325 5.40412 9.8345 5.24634 10.232 5.24634C10.6295 5.24634 11.0108 5.40412 11.292 5.68502Z" fill="#9FEAFF"/>
<path d="M17.3 8.86701C17.0903 9.07697 16.823 9.22002 16.532 9.27805C16.241 9.33608 15.9393 9.30648 15.6651 9.19301C15.3909 9.07953 15.1565 8.88727 14.9916 8.64056C14.8267 8.39384 14.7387 8.10376 14.7387 7.80701C14.7387 7.51026 14.8267 7.22017 14.9916 6.97346C15.1565 6.72674 15.3909 6.53449 15.6651 6.42101C15.9393 6.30753 16.241 6.27794 16.532 6.33597C16.823 6.394 17.0903 6.53704 17.3 6.74701C17.5809 7.02826 17.7387 7.40951 17.7387 7.80701C17.7387 8.20451 17.5809 8.58576 17.3 8.86701Z" stroke="#1868DB" stroke-linecap="round" stroke-linejoin="round"/>
<path d="M19 13.755C19.1978 13.755 19.3911 13.6964 19.5556 13.5865C19.72 13.4766 19.8482 13.3204 19.9239 13.1377C19.9996 12.955 20.0194 12.7539 19.9808 12.5599C19.9422 12.3659 19.847 12.1878 19.7071 12.0479C19.5673 11.908 19.3891 11.8128 19.1951 11.7742C19.0011 11.7356 18.8 11.7554 18.6173 11.8311C18.4346 11.9068 18.2784 12.035 18.1685 12.1994C18.0586 12.3639 18 12.5572 18 12.755C18 13.0202 18.1054 13.2746 18.2929 13.4621C18.4804 13.6496 18.7348 13.755 19 13.755Z" stroke="#1868DB" stroke-linecap="round" stroke-linejoin="round"/>
<path d="M14.828 19.122C14.5482 18.8423 14.3577 18.486 14.2805 18.098C14.2033 17.71 14.2428 17.3078 14.3942 16.9424C14.5455 16.5769 14.8019 16.2645 15.1308 16.0447C15.4597 15.8249 15.8464 15.7076 16.242 15.7076C16.6376 15.7076 17.0243 15.8249 17.3532 16.0447C17.6821 16.2645 17.9385 16.5769 18.0898 16.9424C18.2412 17.3078 18.2807 17.71 18.2035 18.098C18.1263 18.486 17.9358 18.8423 17.656 19.122C17.2809 19.4969 16.7723 19.7076 16.242 19.7076C15.7117 19.7076 15.2031 19.4969 14.828 19.122Z" stroke="#1868DB" stroke-linecap="round" stroke-linejoin="round"/>
<path d="M11.292 5.68502C11.502 5.89472 11.645 6.16199 11.703 6.45302C11.7611 6.74404 11.7315 7.04573 11.618 7.31993C11.5045 7.59413 11.3123 7.82851 11.0656 7.99341C10.8188 8.15832 10.5288 8.24634 10.232 8.24634C9.93525 8.24634 9.64517 8.15832 9.39845 7.99341C9.15174 7.82851 8.95948 7.59413 8.84601 7.31993C8.73253 7.04573 8.70293 6.74404 8.76096 6.45302C8.81899 6.16199 8.96204 5.89472 9.172 5.68502C9.45325 5.40412 9.8345 5.24634 10.232 5.24634C10.6295 5.24634 11.0108 5.40412 11.292 5.68502Z" stroke="#1868DB" stroke-linecap="round" stroke-linejoin="round"/>
</svg>
